<svg id="Capa_1" enable-background="new 0 0 512 512" height="512" viewBox="0 0 512 512" width="512" xmlns="http://www.w3.org/2000/svg"><g><path d="m353.283 451.041v-63.472c0-1.153.938-2.091 2.091-2.091h107.918v-207.163h-414.584v138.201h38.8c1.153 0 2.091.938 2.091 2.09v66.871h67.027c1.153 0 2.091.938 2.091 2.091v63.472h194.566z" fill="#fff5c6"/><g fill="#fd4755"><g><path d="m182.239 179.959-1-1.644h-49.841l-1 1.508v28.017l1 1.472v.001c.001 13.762 11.158 24.919 24.92 24.919s24.92-11.157 24.92-24.919v-.001l1-1.237v-28.116z"/><path d="m381.602 179.823-1-1.508h-49.841l-1 1.365v28.116l1 1.516v.001c.001 13.762 11.158 24.919 24.92 24.919s24.92-11.157 24.92-24.919v-.001l1-1.472v-28.017z"/><path d="m281.92 179.672-1-1.357h-49.84l-1 1.555v27.923l1 1.518v.001c.001 13.762 11.158 24.919 24.92 24.919s24.92-11.157 24.92-24.919v-.001l1-1.717z"/></g><path d="m430.443 178.315-1 1.311v28.028l1 1.658c0 13.763 11.157 24.92 24.92 24.92s24.92-11.157 24.92-24.92v-30.997z"/></g><path d="m81.557 209.312c0 13.763-11.157 24.92-24.92 24.92-2.773 0-5.438-.46-7.929-1.296v82.58h21.57v-28.898c0-5.84 4.751-10.591 10.591-10.591h24.273v-41.832c-13.142-.693-23.585-11.568-23.585-24.883z" fill="#fef0ae"/><path d="m82.558 179.817-1-1.502h-49.841v30.997c0 13.763 11.157 24.92 24.92 24.92s24.92-11.157 24.92-24.92l1-1.467v-28.028z" fill="#fd4755"/><g><path d="m434.221 385.478v-98.86c0-1.707-1.384-3.091-3.09-3.091h-61.811c-1.707 0-3.091 1.384-3.091 3.091v98.86z" fill="#99e6fc"/><path d="m397.135 385.478v-98.86c0-1.707 1.384-3.091 3.091-3.091h-30.906c-1.707 0-3.091 1.384-3.091 3.091v98.86z" fill="#62dbfb"/><path d="m373.729 385.478v-94.45h52.992v94.45h15v-98.859c0-5.84-4.751-10.591-10.591-10.591h-61.81c-5.84 0-10.591 4.751-10.591 10.591v98.859z" fill="#fff"/><path d="m490.519 451.041v-63.472c0-1.707-1.384-3.091-3.091-3.091h-132.054c-1.707 0-3.091 1.384-3.091 3.091v63.472z" fill="#ea9b58"/><path d="m87.508 316.516c1.153 0 2.091.938 2.091 2.09v66.871h56.172v-98.86c0-1.707-1.384-3.091-3.091-3.091h-61.811c-1.707 0-3.09 1.384-3.09 3.091v29.898h9.729z" fill="#99e6fc"/><path d="m87.508 316.516c1.153 0 2.091.938 2.091 2.09v66.871h19.085v-98.86c0-1.707 1.384-3.091 3.091-3.091h-30.906c-1.707 0-3.09 1.384-3.09 3.091v29.898h9.729z" fill="#62dbfb"/><path d="m85.278 316.516v-25.489h52.992v94.45h15v-98.859c0-5.84-4.751-10.591-10.591-10.591h-61.81c-5.84 0-10.591 4.751-10.591 10.591v29.898z" fill="#fff"/><path d="m159.717 451.041v-63.472c0-1.707-1.384-3.091-3.091-3.091h-135.145v66.563z" fill="#ea9b58"/></g><g><g><path d="m21.481 384.478h32.508v66.563h-32.508z" fill="#d88a55"/><path d="m90.599 384.478h32.412v66.563h-32.412z" fill="#d88a55"/><g><path d="m90.599 384.478h-69.118v-65.871c0-1.707 1.384-3.091 3.091-3.091h62.937c1.707 0 3.091 1.384 3.091 3.091v65.871z" fill="#d88a55"/></g><g><path d="m57.079 315.516h-32.507c-1.707 0-3.091 1.384-3.091 3.091v65.871h32.508v-65.871c0-1.707 1.383-3.091 3.09-3.091z" fill="#c57a44"/></g></g><g fill="#d88a55"><path d="m384.677 451.041v-63.472c0-1.707 1.384-3.091 3.091-3.091h-32.394c-1.707 0-3.091 1.384-3.091 3.091v63.472z"/><path d="m421.401 384.478h29.207v66.563h-29.207z"/></g></g><g><path d="m198.23 318.007h115.54v133.033h-115.54z" fill="#99e6fc"/><path d="m256 318.007h57.77v133.033h-57.77z" fill="#62dbfb"/><g fill="#fff"><path d="m248.5 318.007h15v133.033h-15z"/><path d="m190.73 318.007h15v133.033h-15z"/><path d="m306.27 318.007h15v133.033h-15z"/></g></g><g><g fill="#fff"><path d="m81.557 178.315v30.997c0 13.763 11.157 24.92 24.92 24.92 13.763 0 24.92-11.157 24.92-24.92v-30.997z"/><path d="m181.239 178.315v30.997c0 13.763 11.157 24.92 24.92 24.92 13.763 0 24.92-11.157 24.92-24.92v-30.997z"/><path d="m280.92 178.315v30.997c0 13.763 11.157 24.92 24.92 24.92 13.763 0 24.92-11.157 24.92-24.92v-30.997z"/><path d="m380.602 178.315v30.997c0 13.763 11.157 24.92 24.92 24.92 13.763 0 24.92-11.157 24.92-24.92v-30.997z"/></g><path d="m489.883 146.598h-467.716l-5.931 1v21.415c0 5.69 4.612 10.302 10.302 10.302h458.924c5.69 0 10.302-4.612 10.302-10.302v-21.415z" fill="#faea5e"/></g><g><path d="m72.628 169.013v-21.415h-56.392v21.415c0 5.69 4.612 10.302 10.302 10.302h56.392c-5.69 0-10.302-4.612-10.302-10.302z" fill="#ffd600"/></g><g><path d="m508.909 450.041h-505.818c-1.707 0-3.091 1.384-3.091 3.091v25.536c0 1.707 1.384 3.091 3.091 3.091h505.819c1.707 0 3.091-1.384 3.091-3.091v-25.536c-.001-1.708-1.385-3.091-3.092-3.091z" fill="#9facba"/></g><g><path d="m52.024 478.667v-25.536c0-1.707 1.384-3.091 3.091-3.091h-52.024c-1.707 0-3.091 1.384-3.091 3.091v25.536c0 1.707 1.384 3.091 3.091 3.091h52.024c-1.707 0-3.091-1.384-3.091-3.091z" fill="#8d9ca8"/></g><g><path d="m328.553 319.007h-145.106c-2.761 0-5-2.239-5-5v-32.98c0-2.761 2.239-5 5-5h145.105c2.761 0 5 2.239 5 5v32.98c.001 2.762-2.238 5-4.999 5zm-5.591-27.98h.01z" fill="#fd4755"/></g><path d="m220 314.007v-32.98c0-2.761 2.239-5 5-5h-41.553c-2.761 0-5 2.239-5 5v32.98c0 2.761 2.239 5 5 5h41.553c-2.761 0-5-2.238-5-5z" fill="#fb2b3a"/><path d="m457.877 65.632c-.843-1.823-2.667-2.99-4.676-2.99h-83.228v25.883c0 2.289-1.862 4.151-4.151 4.151h-219.644c-2.289 0-4.151-1.862-4.151-4.151v-25.883h-83.229c-2.008 0-3.833 1.167-4.676 2.99l-37.887 81.966h479.528z" fill="#fd4755"/><g><path d="m115.19 62.642h-56.392c-2.008 0-3.833 1.167-4.676 2.99l-37.887 81.966h56.392l37.887-81.966c.843-1.823 2.668-2.99 4.676-2.99z" fill="#fb2b3a"/></g><g><path d="m365.823 93.676h-219.646c-2.845 0-5.151-2.306-5.151-5.151v-53.132c0-2.845 2.306-5.151 5.151-5.151h219.645c2.845 0 5.151 2.306 5.151 5.151v53.132c0 2.845-2.306 5.151-5.15 5.151z" fill="#fff5c6"/></g><g><path d="m183.887 88.525v-53.132c0-2.845 2.306-5.151 5.151-5.151h-42.861c-2.845 0-5.151 2.306-5.151 5.151v53.132c0 2.845 2.306 5.151 5.151 5.151h42.861c-2.845 0-5.151-2.306-5.151-5.151z" fill="#fef0ae"/></g><g><path d="m303.903 69.459h-95.807c-4.143 0-7.5-3.358-7.5-7.5s3.357-7.5 7.5-7.5h95.807c4.143 0 7.5 3.358 7.5 7.5s-3.357 7.5-7.5 7.5z" fill="#faea5e"/></g><g><g><path d="m91.171 127.394h-22.664c-4.143 0-7.5-3.358-7.5-7.5s3.357-7.5 7.5-7.5h22.664c4.143 0 7.5 3.358 7.5 7.5s-3.358 7.5-7.5 7.5z" fill="#fd8087"/></g><g><path d="m149.892 127.394h-22.664c-4.143 0-7.5-3.358-7.5-7.5s3.357-7.5 7.5-7.5h22.664c4.143 0 7.5 3.358 7.5 7.5s-3.358 7.5-7.5 7.5z" fill="#fd8087"/></g><g><path d="m208.611 127.394h-22.664c-4.143 0-7.5-3.358-7.5-7.5s3.357-7.5 7.5-7.5h22.664c4.143 0 7.5 3.358 7.5 7.5s-3.357 7.5-7.5 7.5z" fill="#fd8087"/></g><g><path d="m267.332 127.394h-22.664c-4.143 0-7.5-3.358-7.5-7.5s3.357-7.5 7.5-7.5h22.664c4.143 0 7.5 3.358 7.5 7.5s-3.357 7.5-7.5 7.5z" fill="#fd8087"/></g><g><path d="m326.053 127.394h-22.664c-4.143 0-7.5-3.358-7.5-7.5s3.357-7.5 7.5-7.5h22.664c4.143 0 7.5 3.358 7.5 7.5s-3.358 7.5-7.5 7.5z" fill="#fd8087"/></g><g><path d="m384.772 127.394h-22.664c-4.143 0-7.5-3.358-7.5-7.5s3.357-7.5 7.5-7.5h22.664c4.143 0 7.5 3.358 7.5 7.5s-3.357 7.5-7.5 7.5z" fill="#fd8087"/></g><g><path d="m443.493 127.394h-22.664c-4.143 0-7.5-3.358-7.5-7.5s3.357-7.5 7.5-7.5h22.664c4.143 0 7.5 3.358 7.5 7.5s-3.357 7.5-7.5 7.5z" fill="#fd8087"/></g></g><g><g><path d="m105.594 99.579h-22.664c-4.143 0-7.5-3.358-7.5-7.5s3.357-7.5 7.5-7.5h22.664c4.143 0 7.5 3.358 7.5 7.5s-3.358 7.5-7.5 7.5z" fill="#fd8087"/></g><g><path d="m429.07 99.579h-22.664c-4.143 0-7.5-3.358-7.5-7.5s3.357-7.5 7.5-7.5h22.664c4.143 0 7.5 3.358 7.5 7.5s-3.357 7.5-7.5 7.5z" fill="#fd8087"/></g></g></g></svg>